<svg xmlns="http://www.w3.org/2000/svg" viewBox="0 0 200 200" width="200" height="200" role="img" aria-label="Sfotty Pie">
  <title>Sfotty Pie</title>
  <defs>
    <linearGradient id="crust" gradientUnits="userSpaceOnUse" x1="55" y1="45" x2="160" y2="170">
      <stop offset="0" stop-color="#edc07a"/><stop offset="1" stop-color="#9c6628"/>
    </linearGradient>
    <linearGradient id="filling" gradientUnits="userSpaceOnUse" x1="55" y1="45" x2="160" y2="170">
      <stop offset="0" stop-color="#f8e7c2"/><stop offset="1" stop-color="#dcbb7d"/>
    </linearGradient>
  </defs>
  <path d="M 100 100 L 167.55 139.00 L 167.01 140.26 L 166.71 141.68 L 166.58 143.23 L 166.50 144.85 L 166.35 146.46 L 166.03 147.97 L 165.45 149.32 L 164.58 150.46 L 163.43 151.36 L 162.05 152.07 L 160.53 152.62 L 158.99 153.12 L 157.53 153.65 L 156.23 154.30 L 155.15 155.15 L 154.30 156.23 L 153.65 157.53 L 153.12 158.99 L 152.62 160.53 L 152.07 162.05 L 151.36 163.43 L 150.46 164.58 L 149.32 165.45 L 147.97 166.03 L 146.46 166.35 L 144.85 166.50 L 143.23 166.58 L 141.68 166.71 L 140.26 167.01 L 139.00 167.55 L 137.90 168.37 L 136.93 169.45 L 136.04 170.73 L 135.16 172.09 L 134.23 173.41 L 133.20 174.56 L 132.02 175.44 L 130.70 175.99 L 129.25 176.20 L 127.70 176.12 L 126.11 175.84 L 124.53 175.50 L 123.00 175.22 L 121.55 175.14 L 120.19 175.34 L 118.91 175.85 L 117.70 176.65 L 116.50 177.65 L 115.30 178.74 L 114.07 179.77 L 112.77 180.61 L 111.41 181.16 L 109.99 181.35 L 108.53 181.17 L 107.06 180.69 L 105.60 180.01 L 104.15 179.27 L 102.75 178.61 L 101.36 178.16 L 100.00 178.00 L 98.64 178.16 L 97.25 178.61 L 95.85 179.27 L 94.40 180.01 L 92.94 180.69 L 91.47 181.17 L 90.01 181.35 L 88.59 181.16 L 87.23 180.61 L 85.93 179.77 L 84.70 178.74 L 83.50 177.65 L 82.30 176.65 L 81.09 175.85 L 79.81 175.34 L 78.45 175.14 L 77.00 175.22 L 75.47 175.50 L 73.89 175.84 L 72.30 176.12 L 70.75 176.20 L 69.30 175.99 L 67.98 175.44 L 66.80 174.56 L 65.77 173.41 L 64.84 172.09 L 63.96 170.73 L 63.07 169.45 L 62.10 168.37 L 61.00 167.55 L 59.74 167.01 L 58.32 166.71 L 56.77 166.58 L 55.15 166.50 L 53.54 166.35 L 52.03 166.03 L 50.68 165.45 L 49.54 164.58 L 48.64 163.43 L 47.93 162.05 L 47.38 160.53 L 46.88 158.99 L 46.35 157.53 L 45.70 156.23 L 44.85 155.15 L 43.77 154.30 L 42.47 153.65 L 41.01 153.12 L 39.47 152.62 L 37.95 152.07 L 36.57 151.36 L 35.42 150.46 L 34.55 149.32 L 33.97 147.97 L 33.65 146.46 L 33.50 144.85 L 33.42 143.23 L 33.29 141.68 L 32.99 140.26 L 32.45 139.00 L 31.63 137.90 L 30.55 136.93 L 29.27 136.04 L 27.91 135.16 L 26.59 134.23 L 25.44 133.20 L 24.56 132.02 L 24.01 130.70 L 23.80 129.25 L 23.88 127.70 L 24.16 126.11 L 24.50 124.53 L 24.78 123.00 L 24.86 121.55 L 24.66 120.19 L 24.15 118.91 L 23.35 117.70 L 22.35 116.50 L 21.26 115.30 L 20.23 114.07 L 19.39 112.77 L 18.84 111.41 L 18.65 109.99 L 18.83 108.53 L 19.31 107.06 L 19.99 105.60 L 20.73 104.15 L 21.39 102.75 L 21.84 101.36 L 22.00 100.00 L 21.84 98.64 L 21.39 97.25 L 20.73 95.85 L 19.99 94.40 L 19.31 92.94 L 18.83 91.47 L 18.65 90.01 L 18.84 88.59 L 19.39 87.23 L 20.23 85.93 L 21.26 84.70 L 22.35 83.50 L 23.35 82.30 L 24.15 81.09 L 24.66 79.81 L 24.86 78.45 L 24.78 77.00 L 24.50 75.47 L 24.16 73.89 L 23.88 72.30 L 23.80 70.75 L 24.01 69.30 L 24.56 67.98 L 25.44 66.80 L 26.59 65.77 L 27.91 64.84 L 29.27 63.96 L 30.55 63.07 L 31.63 62.10 L 32.45 61.00 L 32.99 59.74 L 33.29 58.32 L 33.42 56.77 L 33.50 55.15 L 33.65 53.54 L 33.97 52.03 L 34.55 50.68 L 35.42 49.54 L 36.57 48.64 L 37.95 47.93 L 39.47 47.38 L 41.01 46.88 L 42.47 46.35 L 43.77 45.70 L 44.85 44.85 L 45.70 43.77 L 46.35 42.47 L 46.88 41.01 L 47.38 39.47 L 47.93 37.95 L 48.64 36.57 L 49.54 35.42 L 50.68 34.55 L 52.03 33.97 L 53.54 33.65 L 55.15 33.50 L 56.77 33.42 L 58.32 33.29 L 59.74 32.99 L 61.00 32.45 L 62.10 31.63 L 63.07 30.55 L 63.96 29.27 L 64.84 27.91 L 65.77 26.59 L 66.80 25.44 L 67.98 24.56 L 69.30 24.01 L 70.75 23.80 L 72.30 23.88 L 73.89 24.16 L 75.47 24.50 L 77.00 24.78 L 78.45 24.86 L 79.81 24.66 L 81.09 24.15 L 82.30 23.35 L 83.50 22.35 L 84.70 21.26 L 85.93 20.23 L 87.23 19.39 L 88.59 18.84 L 90.01 18.65 L 91.47 18.83 L 92.94 19.31 L 94.40 19.99 L 95.85 20.73 L 97.25 21.39 L 98.64 21.84 L 100.00 22.00 L 101.36 21.84 L 102.75 21.39 L 104.15 20.73 L 105.60 19.99 L 107.06 19.31 L 108.53 18.83 L 109.99 18.65 L 111.41 18.84 L 112.77 19.39 L 114.07 20.23 L 115.30 21.26 L 116.50 22.35 L 117.70 23.35 L 118.91 24.15 L 120.19 24.66 L 121.55 24.86 L 123.00 24.78 L 124.53 24.50 L 126.11 24.16 L 127.70 23.88 L 129.25 23.80 L 130.70 24.01 L 132.02 24.56 L 133.20 25.44 L 134.23 26.59 L 135.16 27.91 L 136.04 29.27 L 136.93 30.55 L 137.90 31.63 L 139.00 32.45 L 140.26 32.99 L 141.68 33.29 L 143.23 33.42 L 144.85 33.50 L 146.46 33.65 L 147.97 33.97 L 149.32 34.55 L 150.46 35.42 L 151.36 36.57 L 152.07 37.95 L 152.62 39.47 L 153.12 41.01 L 153.65 42.47 L 154.30 43.77 L 155.15 44.85 L 156.23 45.70 L 157.53 46.35 L 158.99 46.88 L 160.53 47.38 L 162.05 47.93 L 163.43 48.64 L 164.58 49.54 L 165.45 50.68 L 166.03 52.03 L 166.35 53.54 L 166.50 55.15 L 166.58 56.77 L 166.71 58.32 L 167.01 59.74 L 167.55 61.00 Z" fill="url(#crust)"/>
  <path d="M 100 100 L 158.89 134.00 L 158.29 135.02 L 157.67 136.03 L 157.03 137.04 L 156.37 138.03 L 155.70 139.00 L 155.01 139.97 L 154.31 140.92 L 153.58 141.86 L 152.85 142.79 L 152.09 143.71 L 151.32 144.61 L 150.53 145.50 L 149.73 146.38 L 148.92 147.24 L 148.08 148.08 L 147.24 148.92 L 146.38 149.73 L 145.50 150.53 L 144.61 151.32 L 143.71 152.09 L 142.79 152.85 L 141.86 153.58 L 140.92 154.31 L 139.97 155.01 L 139.00 155.70 L 138.03 156.37 L 137.04 157.03 L 136.03 157.67 L 135.02 158.29 L 134.00 158.89 L 132.97 159.47 L 131.92 160.04 L 130.87 160.59 L 129.81 161.12 L 128.74 161.63 L 127.66 162.12 L 126.57 162.59 L 125.47 163.05 L 124.37 163.48 L 123.26 163.90 L 122.14 164.30 L 121.01 164.67 L 119.88 165.03 L 118.74 165.37 L 117.60 165.68 L 116.45 165.98 L 115.30 166.26 L 114.14 166.51 L 112.98 166.75 L 111.81 166.97 L 110.64 167.16 L 109.46 167.34 L 108.29 167.49 L 107.11 167.63 L 105.93 167.74 L 104.74 167.83 L 103.56 167.91 L 102.37 167.96 L 101.19 167.99 L 100.00 168.00 L 98.81 167.99 L 97.63 167.96 L 96.44 167.91 L 95.26 167.83 L 94.07 167.74 L 92.89 167.63 L 91.71 167.49 L 90.54 167.34 L 89.36 167.16 L 88.19 166.97 L 87.02 166.75 L 85.86 166.51 L 84.70 166.26 L 83.55 165.98 L 82.40 165.68 L 81.26 165.37 L 80.12 165.03 L 78.99 164.67 L 77.86 164.30 L 76.74 163.90 L 75.63 163.48 L 74.53 163.05 L 73.43 162.59 L 72.34 162.12 L 71.26 161.63 L 70.19 161.12 L 69.13 160.59 L 68.08 160.04 L 67.03 159.47 L 66.00 158.89 L 64.98 158.29 L 63.97 157.67 L 62.96 157.03 L 61.97 156.37 L 61.00 155.70 L 60.03 155.01 L 59.08 154.31 L 58.14 153.58 L 57.21 152.85 L 56.29 152.09 L 55.39 151.32 L 54.50 150.53 L 53.62 149.73 L 52.76 148.92 L 51.92 148.08 L 51.08 147.24 L 50.27 146.38 L 49.47 145.50 L 48.68 144.61 L 47.91 143.71 L 47.15 142.79 L 46.42 141.86 L 45.69 140.92 L 44.99 139.97 L 44.30 139.00 L 43.63 138.03 L 42.97 137.04 L 42.33 136.03 L 41.71 135.02 L 41.11 134.00 L 40.53 132.97 L 39.96 131.92 L 39.41 130.87 L 38.88 129.81 L 38.37 128.74 L 37.88 127.66 L 37.41 126.57 L 36.95 125.47 L 36.52 124.37 L 36.10 123.26 L 35.70 122.14 L 35.33 121.01 L 34.97 119.88 L 34.63 118.74 L 34.32 117.60 L 34.02 116.45 L 33.74 115.30 L 33.49 114.14 L 33.25 112.98 L 33.03 111.81 L 32.84 110.64 L 32.66 109.46 L 32.51 108.29 L 32.37 107.11 L 32.26 105.93 L 32.17 104.74 L 32.09 103.56 L 32.04 102.37 L 32.01 101.19 L 32.00 100.00 L 32.01 98.81 L 32.04 97.63 L 32.09 96.44 L 32.17 95.26 L 32.26 94.07 L 32.37 92.89 L 32.51 91.71 L 32.66 90.54 L 32.84 89.36 L 33.03 88.19 L 33.25 87.02 L 33.49 85.86 L 33.74 84.70 L 34.02 83.55 L 34.32 82.40 L 34.63 81.26 L 34.97 80.12 L 35.33 78.99 L 35.70 77.86 L 36.10 76.74 L 36.52 75.63 L 36.95 74.53 L 37.41 73.43 L 37.88 72.34 L 38.37 71.26 L 38.88 70.19 L 39.41 69.13 L 39.96 68.08 L 40.53 67.03 L 41.11 66.00 L 41.71 64.98 L 42.33 63.97 L 42.97 62.96 L 43.63 61.97 L 44.30 61.00 L 44.99 60.03 L 45.69 59.08 L 46.42 58.14 L 47.15 57.21 L 47.91 56.29 L 48.68 55.39 L 49.47 54.50 L 50.27 53.62 L 51.08 52.76 L 51.92 51.92 L 52.76 51.08 L 53.62 50.27 L 54.50 49.47 L 55.39 48.68 L 56.29 47.91 L 57.21 47.15 L 58.14 46.42 L 59.08 45.69 L 60.03 44.99 L 61.00 44.30 L 61.97 43.63 L 62.96 42.97 L 63.97 42.33 L 64.98 41.71 L 66.00 41.11 L 67.03 40.53 L 68.08 39.96 L 69.13 39.41 L 70.19 38.88 L 71.26 38.37 L 72.34 37.88 L 73.43 37.41 L 74.53 36.95 L 75.63 36.52 L 76.74 36.10 L 77.86 35.70 L 78.99 35.33 L 80.12 34.97 L 81.26 34.63 L 82.40 34.32 L 83.55 34.02 L 84.70 33.74 L 85.86 33.49 L 87.02 33.25 L 88.19 33.03 L 89.36 32.84 L 90.54 32.66 L 91.71 32.51 L 92.89 32.37 L 94.07 32.26 L 95.26 32.17 L 96.44 32.09 L 97.63 32.04 L 98.81 32.01 L 100.00 32.00 L 101.19 32.01 L 102.37 32.04 L 103.56 32.09 L 104.74 32.17 L 105.93 32.26 L 107.11 32.37 L 108.29 32.51 L 109.46 32.66 L 110.64 32.84 L 111.81 33.03 L 112.98 33.25 L 114.14 33.49 L 115.30 33.74 L 116.45 34.02 L 117.60 34.32 L 118.74 34.63 L 119.88 34.97 L 121.01 35.33 L 122.14 35.70 L 123.26 36.10 L 124.37 36.52 L 125.47 36.95 L 126.57 37.41 L 127.66 37.88 L 128.74 38.37 L 129.81 38.88 L 130.87 39.41 L 131.92 39.96 L 132.97 40.53 L 134.00 41.11 L 135.02 41.71 L 136.03 42.33 L 137.04 42.97 L 138.03 43.63 L 139.00 44.30 L 139.97 44.99 L 140.92 45.69 L 141.86 46.42 L 142.79 47.15 L 143.71 47.91 L 144.61 48.68 L 145.50 49.47 L 146.38 50.27 L 147.24 51.08 L 148.08 51.92 L 148.92 52.76 L 149.73 53.62 L 150.53 54.50 L 151.32 55.39 L 152.09 56.29 L 152.85 57.21 L 153.58 58.14 L 154.31 59.08 L 155.01 60.03 L 155.70 61.00 L 156.37 61.97 L 157.03 62.96 L 157.67 63.97 L 158.29 64.98 L 158.89 66.00 Z" fill="url(#filling)"/>
  <path d="M 100 100 L 167.55 61.00 L 110.81 106.24 Z" fill="#a86e2e"/>
  <g fill="none" stroke="#3a2412" stroke-linejoin="round" stroke-linecap="round">
    <path d="M 100 100 L 167.55 139.00 L 167.01 140.26 L 166.71 141.68 L 166.58 143.23 L 166.50 144.85 L 166.35 146.46 L 166.03 147.97 L 165.45 149.32 L 164.58 150.46 L 163.43 151.36 L 162.05 152.07 L 160.53 152.62 L 158.99 153.12 L 157.53 153.65 L 156.23 154.30 L 155.15 155.15 L 154.30 156.23 L 153.65 157.53 L 153.12 158.99 L 152.62 160.53 L 152.07 162.05 L 151.36 163.43 L 150.46 164.58 L 149.32 165.45 L 147.97 166.03 L 146.46 166.35 L 144.85 166.50 L 143.23 166.58 L 141.68 166.71 L 140.26 167.01 L 139.00 167.55 L 137.90 168.37 L 136.93 169.45 L 136.04 170.73 L 135.16 172.09 L 134.23 173.41 L 133.20 174.56 L 132.02 175.44 L 130.70 175.99 L 129.25 176.20 L 127.70 176.12 L 126.11 175.84 L 124.53 175.50 L 123.00 175.22 L 121.55 175.14 L 120.19 175.34 L 118.91 175.85 L 117.70 176.65 L 116.50 177.65 L 115.30 178.74 L 114.07 179.77 L 112.77 180.61 L 111.41 181.16 L 109.99 181.35 L 108.53 181.17 L 107.06 180.69 L 105.60 180.01 L 104.15 179.27 L 102.75 178.61 L 101.36 178.16 L 100.00 178.00 L 98.64 178.16 L 97.25 178.61 L 95.85 179.27 L 94.40 180.01 L 92.94 180.69 L 91.47 181.17 L 90.01 181.35 L 88.59 181.16 L 87.23 180.61 L 85.93 179.77 L 84.70 178.74 L 83.50 177.65 L 82.30 176.65 L 81.09 175.85 L 79.81 175.34 L 78.45 175.14 L 77.00 175.22 L 75.47 175.50 L 73.89 175.84 L 72.30 176.12 L 70.75 176.20 L 69.30 175.99 L 67.98 175.44 L 66.80 174.56 L 65.77 173.41 L 64.84 172.09 L 63.96 170.73 L 63.07 169.45 L 62.10 168.37 L 61.00 167.55 L 59.74 167.01 L 58.32 166.71 L 56.77 166.58 L 55.15 166.50 L 53.54 166.35 L 52.03 166.03 L 50.68 165.45 L 49.54 164.58 L 48.64 163.43 L 47.93 162.05 L 47.38 160.53 L 46.88 158.99 L 46.35 157.53 L 45.70 156.23 L 44.85 155.15 L 43.77 154.30 L 42.47 153.65 L 41.01 153.12 L 39.47 152.62 L 37.95 152.07 L 36.57 151.36 L 35.42 150.46 L 34.55 149.32 L 33.97 147.97 L 33.65 146.46 L 33.50 144.85 L 33.42 143.23 L 33.29 141.68 L 32.99 140.26 L 32.45 139.00 L 31.63 137.90 L 30.55 136.93 L 29.27 136.04 L 27.91 135.16 L 26.59 134.23 L 25.44 133.20 L 24.56 132.02 L 24.01 130.70 L 23.80 129.25 L 23.88 127.70 L 24.16 126.11 L 24.50 124.53 L 24.78 123.00 L 24.86 121.55 L 24.66 120.19 L 24.15 118.91 L 23.35 117.70 L 22.35 116.50 L 21.26 115.30 L 20.23 114.07 L 19.39 112.77 L 18.84 111.41 L 18.65 109.99 L 18.83 108.53 L 19.31 107.06 L 19.99 105.60 L 20.73 104.15 L 21.39 102.75 L 21.84 101.36 L 22.00 100.00 L 21.84 98.64 L 21.39 97.25 L 20.73 95.85 L 19.99 94.40 L 19.31 92.94 L 18.83 91.47 L 18.65 90.01 L 18.84 88.59 L 19.39 87.23 L 20.23 85.93 L 21.26 84.70 L 22.35 83.50 L 23.35 82.30 L 24.15 81.09 L 24.66 79.81 L 24.86 78.45 L 24.78 77.00 L 24.50 75.47 L 24.16 73.89 L 23.88 72.30 L 23.80 70.75 L 24.01 69.30 L 24.56 67.98 L 25.44 66.80 L 26.59 65.77 L 27.91 64.84 L 29.27 63.96 L 30.55 63.07 L 31.63 62.10 L 32.45 61.00 L 32.99 59.74 L 33.29 58.32 L 33.42 56.77 L 33.50 55.15 L 33.65 53.54 L 33.97 52.03 L 34.55 50.68 L 35.42 49.54 L 36.57 48.64 L 37.95 47.93 L 39.47 47.38 L 41.01 46.88 L 42.47 46.35 L 43.77 45.70 L 44.85 44.85 L 45.70 43.77 L 46.35 42.47 L 46.88 41.01 L 47.38 39.47 L 47.93 37.95 L 48.64 36.57 L 49.54 35.42 L 50.68 34.55 L 52.03 33.97 L 53.54 33.65 L 55.15 33.50 L 56.77 33.42 L 58.32 33.29 L 59.74 32.99 L 61.00 32.45 L 62.10 31.63 L 63.07 30.55 L 63.96 29.27 L 64.84 27.91 L 65.77 26.59 L 66.80 25.44 L 67.98 24.56 L 69.30 24.01 L 70.75 23.80 L 72.30 23.88 L 73.89 24.16 L 75.47 24.50 L 77.00 24.78 L 78.45 24.86 L 79.81 24.66 L 81.09 24.15 L 82.30 23.35 L 83.50 22.35 L 84.70 21.26 L 85.93 20.23 L 87.23 19.39 L 88.59 18.84 L 90.01 18.65 L 91.47 18.83 L 92.94 19.31 L 94.40 19.99 L 95.85 20.73 L 97.25 21.39 L 98.64 21.84 L 100.00 22.00 L 101.36 21.84 L 102.75 21.39 L 104.15 20.73 L 105.60 19.99 L 107.06 19.31 L 108.53 18.83 L 109.99 18.65 L 111.41 18.84 L 112.77 19.39 L 114.07 20.23 L 115.30 21.26 L 116.50 22.35 L 117.70 23.35 L 118.91 24.15 L 120.19 24.66 L 121.55 24.86 L 123.00 24.78 L 124.53 24.50 L 126.11 24.16 L 127.70 23.88 L 129.25 23.80 L 130.70 24.01 L 132.02 24.56 L 133.20 25.44 L 134.23 26.59 L 135.16 27.91 L 136.04 29.27 L 136.93 30.55 L 137.90 31.63 L 139.00 32.45 L 140.26 32.99 L 141.68 33.29 L 143.23 33.42 L 144.85 33.50 L 146.46 33.65 L 147.97 33.97 L 149.32 34.55 L 150.46 35.42 L 151.36 36.57 L 152.07 37.95 L 152.62 39.47 L 153.12 41.01 L 153.65 42.47 L 154.30 43.77 L 155.15 44.85 L 156.23 45.70 L 157.53 46.35 L 158.99 46.88 L 160.53 47.38 L 162.05 47.93 L 163.43 48.64 L 164.58 49.54 L 165.45 50.68 L 166.03 52.03 L 166.35 53.54 L 166.50 55.15 L 166.58 56.77 L 166.71 58.32 L 167.01 59.74 L 167.55 61.00 Z" stroke-width="4"/>
    <path d="M 158.89 134.00 L 158.29 135.02 L 157.67 136.03 L 157.03 137.04 L 156.37 138.03 L 155.70 139.00 L 155.01 139.97 L 154.31 140.92 L 153.58 141.86 L 152.85 142.79 L 152.09 143.71 L 151.32 144.61 L 150.53 145.50 L 149.73 146.38 L 148.92 147.24 L 148.08 148.08 L 147.24 148.92 L 146.38 149.73 L 145.50 150.53 L 144.61 151.32 L 143.71 152.09 L 142.79 152.85 L 141.86 153.58 L 140.92 154.31 L 139.97 155.01 L 139.00 155.70 L 138.03 156.37 L 137.04 157.03 L 136.03 157.67 L 135.02 158.29 L 134.00 158.89 L 132.97 159.47 L 131.92 160.04 L 130.87 160.59 L 129.81 161.12 L 128.74 161.63 L 127.66 162.12 L 126.57 162.59 L 125.47 163.05 L 124.37 163.48 L 123.26 163.90 L 122.14 164.30 L 121.01 164.67 L 119.88 165.03 L 118.74 165.37 L 117.60 165.68 L 116.45 165.98 L 115.30 166.26 L 114.14 166.51 L 112.98 166.75 L 111.81 166.97 L 110.64 167.16 L 109.46 167.34 L 108.29 167.49 L 107.11 167.63 L 105.93 167.74 L 104.74 167.83 L 103.56 167.91 L 102.37 167.96 L 101.19 167.99 L 100.00 168.00 L 98.81 167.99 L 97.63 167.96 L 96.44 167.91 L 95.26 167.83 L 94.07 167.74 L 92.89 167.63 L 91.71 167.49 L 90.54 167.34 L 89.36 167.16 L 88.19 166.97 L 87.02 166.75 L 85.86 166.51 L 84.70 166.26 L 83.55 165.98 L 82.40 165.68 L 81.26 165.37 L 80.12 165.03 L 78.99 164.67 L 77.86 164.30 L 76.74 163.90 L 75.63 163.48 L 74.53 163.05 L 73.43 162.59 L 72.34 162.12 L 71.26 161.63 L 70.19 161.12 L 69.13 160.59 L 68.08 160.04 L 67.03 159.47 L 66.00 158.89 L 64.98 158.29 L 63.97 157.67 L 62.96 157.03 L 61.97 156.37 L 61.00 155.70 L 60.03 155.01 L 59.08 154.31 L 58.14 153.58 L 57.21 152.85 L 56.29 152.09 L 55.39 151.32 L 54.50 150.53 L 53.62 149.73 L 52.76 148.92 L 51.92 148.08 L 51.08 147.24 L 50.27 146.38 L 49.47 145.50 L 48.68 144.61 L 47.91 143.71 L 47.15 142.79 L 46.42 141.86 L 45.69 140.92 L 44.99 139.97 L 44.30 139.00 L 43.63 138.03 L 42.97 137.04 L 42.33 136.03 L 41.71 135.02 L 41.11 134.00 L 40.53 132.97 L 39.96 131.92 L 39.41 130.87 L 38.88 129.81 L 38.37 128.74 L 37.88 127.66 L 37.41 126.57 L 36.95 125.47 L 36.52 124.37 L 36.10 123.26 L 35.70 122.14 L 35.33 121.01 L 34.97 119.88 L 34.63 118.74 L 34.32 117.60 L 34.02 116.45 L 33.74 115.30 L 33.49 114.14 L 33.25 112.98 L 33.03 111.81 L 32.84 110.64 L 32.66 109.46 L 32.51 108.29 L 32.37 107.11 L 32.26 105.93 L 32.17 104.74 L 32.09 103.56 L 32.04 102.37 L 32.01 101.19 L 32.00 100.00 L 32.01 98.81 L 32.04 97.63 L 32.09 96.44 L 32.17 95.26 L 32.26 94.07 L 32.37 92.89 L 32.51 91.71 L 32.66 90.54 L 32.84 89.36 L 33.03 88.19 L 33.25 87.02 L 33.49 85.86 L 33.74 84.70 L 34.02 83.55 L 34.32 82.40 L 34.63 81.26 L 34.97 80.12 L 35.33 78.99 L 35.70 77.86 L 36.10 76.74 L 36.52 75.63 L 36.95 74.53 L 37.41 73.43 L 37.88 72.34 L 38.37 71.26 L 38.88 70.19 L 39.41 69.13 L 39.96 68.08 L 40.53 67.03 L 41.11 66.00 L 41.71 64.98 L 42.33 63.97 L 42.97 62.96 L 43.63 61.97 L 44.30 61.00 L 44.99 60.03 L 45.69 59.08 L 46.42 58.14 L 47.15 57.21 L 47.91 56.29 L 48.68 55.39 L 49.47 54.50 L 50.27 53.62 L 51.08 52.76 L 51.92 51.92 L 52.76 51.08 L 53.62 50.27 L 54.50 49.47 L 55.39 48.68 L 56.29 47.91 L 57.21 47.15 L 58.14 46.42 L 59.08 45.69 L 60.03 44.99 L 61.00 44.30 L 61.97 43.63 L 62.96 42.97 L 63.97 42.33 L 64.98 41.71 L 66.00 41.11 L 67.03 40.53 L 68.08 39.96 L 69.13 39.41 L 70.19 38.88 L 71.26 38.37 L 72.34 37.88 L 73.43 37.41 L 74.53 36.95 L 75.63 36.52 L 76.74 36.10 L 77.86 35.70 L 78.99 35.33 L 80.12 34.97 L 81.26 34.63 L 82.40 34.32 L 83.55 34.02 L 84.70 33.74 L 85.86 33.49 L 87.02 33.25 L 88.19 33.03 L 89.36 32.84 L 90.54 32.66 L 91.71 32.51 L 92.89 32.37 L 94.07 32.26 L 95.26 32.17 L 96.44 32.09 L 97.63 32.04 L 98.81 32.01 L 100.00 32.00 L 101.19 32.01 L 102.37 32.04 L 103.56 32.09 L 104.74 32.17 L 105.93 32.26 L 107.11 32.37 L 108.29 32.51 L 109.46 32.66 L 110.64 32.84 L 111.81 33.03 L 112.98 33.25 L 114.14 33.49 L 115.30 33.74 L 116.45 34.02 L 117.60 34.32 L 118.74 34.63 L 119.88 34.97 L 121.01 35.33 L 122.14 35.70 L 123.26 36.10 L 124.37 36.52 L 125.47 36.95 L 126.57 37.41 L 127.66 37.88 L 128.74 38.37 L 129.81 38.88 L 130.87 39.41 L 131.92 39.96 L 132.97 40.53 L 134.00 41.11 L 135.02 41.71 L 136.03 42.33 L 137.04 42.97 L 138.03 43.63 L 139.00 44.30 L 139.97 44.99 L 140.92 45.69 L 141.86 46.42 L 142.79 47.15 L 143.71 47.91 L 144.61 48.68 L 145.50 49.47 L 146.38 50.27 L 147.24 51.08 L 148.08 51.92 L 148.92 52.76 L 149.73 53.62 L 150.53 54.50 L 151.32 55.39 L 152.09 56.29 L 152.85 57.21 L 153.58 58.14 L 154.31 59.08 L 155.01 60.03 L 155.70 61.00 L 156.37 61.97 L 157.03 62.96 L 157.67 63.97 L 158.29 64.98 L 158.89 66.00 " stroke-width="3"/>
    <path d="M 167.55 61.00 L 110.81 106.24" stroke-width="3"/>
  </g>
  <rect x="99" y="58" width="8" height="6" fill="#3a2412"/><rect x="107" y="64" width="8" height="6" fill="#3a2412"/><rect x="99" y="70" width="8" height="6" fill="#3a2412"/>
</svg>
