<svg xmlns="http://www.w3.org/2000/svg">
	<!--
		Icon sprite: one <symbol> per icon, referenced by id from the Icon
		component (src/icon.tsx) via <use href="…#id">. Icons are from Lucide
		(https://lucide.dev), ISC-licensed. The stroke styling (fill/stroke/
		width/linecaps) is set on the <svg> wrapper in icon.tsx and inherited
		across the <use> boundary, so the symbols carry geometry only.

		Symbol ids must stay in sync with ICON_NAMES in icon.tsx.
	-->
	<symbol id="menu" viewBox="0 0 24 24">
		<path d="M4 5h16" />
		<path d="M4 12h16" />
		<path d="M4 19h16" />
	</symbol>
	<symbol id="close" viewBox="0 0 24 24">
		<path d="M18 6 6 18" />
		<path d="m6 6 12 12" />
	</symbol>
	<symbol id="bookmark" viewBox="0 0 24 24">
		<path d="m19 21-7-4-7 4V5a2 2 0 0 1 2-2h10a2 2 0 0 1 2 2z" />
	</symbol>
	<symbol id="joystick" viewBox="0 0 24 24">
		<path d="M21 17a2 2 0 0 0-2-2H5a2 2 0 0 0-2 2v2a2 2 0 0 0 2 2h14a2 2 0 0 0 2-2v-2Z" />
		<path d="M6 15v-2" />
		<path d="M12 15V9" />
		<circle cx="12" cy="6" r="3" />
	</symbol>
	<symbol id="keyboard" viewBox="0 0 24 24">
		<path d="M10 8h.01" />
		<path d="M12 12h.01" />
		<path d="M14 8h.01" />
		<path d="M16 12h.01" />
		<path d="M18 8h.01" />
		<path d="M6 8h.01" />
		<path d="M7 16h10" />
		<path d="M8 12h.01" />
		<rect width="20" height="16" x="2" y="4" rx="2" />
	</symbol>
	<symbol id="chevron-down" viewBox="0 0 24 24">
		<path d="m6 9 6 6 6-6" />
	</symbol>
	<symbol id="swap" viewBox="0 0 24 24">
		<path d="M8 3 4 7l4 4" />
		<path d="M4 7h16" />
		<path d="m16 21 4-4-4-4" />
		<path d="M20 17H4" />
	</symbol>
	<symbol id="play" viewBox="0 0 24 24">
		<path d="M5 5a2 2 0 0 1 3.008-1.728l11.997 6.998a2 2 0 0 1 .003 3.458l-12 7A2 2 0 0 1 5 19z" />
	</symbol>
	<symbol id="pause" viewBox="0 0 24 24">
		<rect x="14" y="3" width="5" height="18" rx="1" />
		<rect x="5" y="3" width="5" height="18" rx="1" />
	</symbol>
	<symbol id="zap" viewBox="0 0 24 24">
		<path d="M4 14a1 1 0 0 1-.78-1.63l9.9-10.2a.5.5 0 0 1 .86.46l-1.92 6.02A1 1 0 0 0 13 10h7a1 1 0 0 1 .78 1.63l-9.9 10.2a.5.5 0 0 1-.86-.46l1.92-6.02A1 1 0 0 0 11 14z" />
	</symbol>
	<symbol id="volume" viewBox="0 0 24 24">
		<path d="M11 4.702a.705.705 0 0 0-1.203-.498L6.413 7.587A1.4 1.4 0 0 1 5.416 8H3a1 1 0 0 0-1 1v6a1 1 0 0 0 1 1h2.416a1.4 1.4 0 0 1 .997.413l3.383 3.384A.705.705 0 0 0 11 19.298z" />
	</symbol>
	<symbol id="volume-2" viewBox="0 0 24 24">
		<path d="M11 4.702a.705.705 0 0 0-1.203-.498L6.413 7.587A1.4 1.4 0 0 1 5.416 8H3a1 1 0 0 0-1 1v6a1 1 0 0 0 1 1h2.416a1.4 1.4 0 0 1 .997.413l3.383 3.384A.705.705 0 0 0 11 19.298z" />
		<path d="M16 9a5 5 0 0 1 0 6" />
		<path d="M19.364 18.364a9 9 0 0 0 0-12.728" />
	</symbol>
	<symbol id="volume-x" viewBox="0 0 24 24">
		<path d="M11 4.702a.705.705 0 0 0-1.203-.498L6.413 7.587A1.4 1.4 0 0 1 5.416 8H3a1 1 0 0 0-1 1v6a1 1 0 0 0 1 1h2.416a1.4 1.4 0 0 1 .997.413l3.383 3.384A.705.705 0 0 0 11 19.298z" />
		<line x1="22" x2="16" y1="9" y2="15" />
		<line x1="16" x2="22" y1="9" y2="15" />
	</symbol>
	<symbol id="volume-off" viewBox="0 0 24 24">
		<path d="M16 9a5 5 0 0 1 .95 2.293" />
		<path d="M19.364 5.636a9 9 0 0 1 1.889 9.96" />
		<path d="m2 2 20 20" />
		<path d="m7 7-.587.587A1.4 1.4 0 0 1 5.416 8H3a1 1 0 0 0-1 1v6a1 1 0 0 0 1 1h2.416a1.4 1.4 0 0 1 .997.413l3.383 3.384A.705.705 0 0 0 11 19.298V11" />
		<path d="M9.828 4.172A.686.686 0 0 1 11 4.657v.686" />
	</symbol>
</svg>
